<?xml version="1.0" encoding="utf-8"?>
<!-- Generator: Adobe Illustrator 19.0.0, SVG Export Plug-In . SVG Version: 6.00 Build 0)  -->
<svg version="1.1" id="Layer_1" xmlns="http://www.w3.org/2000/svg" xmlns:xlink="http://www.w3.org/1999/xlink" x="0px" y="0px"
	 viewBox="0 0 500 500" style="enable-background:new 0 0 500 500;" xml:space="preserve">
<style type="text/css">
	.st0{fill:#E38A15;}
	.st1{fill:#3571A4;}
	.st2{fill:#E38914;}
</style>
<g id="XMLID_1_">
	<path id="XMLID_9_" class="st0" d="M347.6,165.1c-37.2,0-68.7,23.9-80.2,57.1h5v33.3c0,3.7,0.5,6.5,1.6,8.3
		c1.1,1.8,2.9,2.7,5.3,2.7c2.4,0,4.2-0.9,5.3-2.6c1.1-1.7,1.7-4.5,1.7-8.4v-33.3h9.7v34c0,6.6-1.4,11.6-4.2,15.2
		c-2.8,3.5-7,5.3-12.5,5.3c-5.5,0-9.7-1.8-12.5-5.3c-0.9-1.1-1.6-2.3-2.2-3.7c8.2,38.3,42.2,67.1,83,67.1c38,0,70.2-25,81-59.4
		l-2.4-10h-13.9l-2.6,10.8h-9.8l13.9-53.4h11.1l7.5,29c0-0.6,0-1.2,0-1.8C432.5,203.1,394.5,165.1,347.6,165.1z M301.8,222.8h11.6
		l13.7,30.6v-30.6h8.9v53.4h-9.3l-15.9-36.6v36.6h-8.9V222.8z M341.2,222.8h26.9v10.3h-17.3v9.9h16v10.3h-16v22.8h-9.6V222.8z
		 M371.9,222.8h15.9c2.4,0,4.4,0.3,6,0.9c1.6,0.6,3.1,1.5,4.4,2.6c1.5,1.4,2.7,3.2,3.5,5.4c0.8,2.2,1.2,4.8,1.2,7.9
		c0,2.4-0.3,4.7-0.9,7c-0.6,2.3-1.4,4.2-2.5,5.7c-1.5,2.1-3.2,3.7-5,4.8c-1.8,1.1-4.1,1.6-6.9,1.6h-6v17.4h-9.7V222.8z M381.6,232.8
		v16h2.8c1.6,0,3-0.1,4.1-0.4c1.1-0.3,2-0.9,2.7-1.7c0.6-0.8,1.1-1.7,1.3-2.7c0.3-1.1,0.4-2.4,0.4-3.9c0-1.5-0.3-2.8-0.9-3.9
		c-0.6-1.1-1.2-1.9-2-2.3c-1-0.6-2-0.9-3-0.9c-1-0.1-2.2-0.1-3.8-0.1H381.6z M419.2,236.5l-4.6,19.1h9.2L419.2,236.5z"/>
	<path id="XMLID_18_" class="st1" d="M230.4,278c-0.4,0.5-0.9,0.9-1.4,1.3c-3.1-3.2-6.8-6.8-10.3-6.8c-2.2,0-3.7,1.7-5.6,2.8
		c-2.5,1.6-6,2.5-9,1.3c-1.6-0.6-3.2-1.5-4.3-3c2.3,1.6,5.9,1.8,8.5,0.7c2.9-1.2,5.9-2.8,9.2-2.8C222.4,271.5,227.1,274.9,230.4,278
		z M194,267.8c3.3,3.7,8.6,2.5,12.9,3.4c0.6,0.1,1.2,0.3,1.8,0.2c-0.5-0.3-1.2-0.4-1.8-0.6c-3.4-1.3-3.9-4.9-5.7-7.4
		c2.4,1.6,4.3,3.7,6.5,5.7c1.5,1.4,3.4,2,5.4,2.4c-0.5,0.2-1.1,0.1-1.6,0.3c-3.6,0.9-7.5,2.3-11.3,1
		C197.8,272.1,195.3,270.2,194,267.8z M188.8,259.2c2,4.6,7.1,5,10.5,7.8c0.6,0.5,1.3,1,2,1.4l0,0c-0.8-0.7-1.6-1.6-2.2-2.4
		c-1.9-2.8-1.3-6.7-2.8-9.7c1.4,1.6,2.6,3.3,3.4,5.2c1.3,3,1.7,6.4,4.5,8.7c-3.1-1-6.6-0.8-9.3-2.6
		C192,265.6,189.4,262.6,188.8,259.2L188.8,259.2z M186.6,249.9c0.3,4,4.6,6.2,6.7,9.5c0.4,0.7,0.9,1.4,1.5,2
		c-0.1-0.4-0.5-0.8-0.6-1.2c-0.7-1.4-1-3.1-0.8-4.8c0.2-2.1,1.1-4,0.7-6.2c1.8,3.8,1.2,8.6,2.2,12.7c0.2,0.9,0.8,1.7,1.1,2.6
		c-1.7-1.3-4-2.5-5.9-4c-1.8-1.5-3.5-3.2-4.3-5.4C186.7,253.6,186.5,251.7,186.6,249.9L186.6,249.9z M186.8,242.4
		c0.2-0.9,0.4-1.8,0.8-2.7c-0.7,3.8,1.8,6.6,2.7,9.9c0.3,1.2,0.4,2.6,0.9,3.7c0,0,0.1,0,0.1-0.1c-1.3-3.5,0.6-6.8,2.4-9.5
		c0.5-0.7,0.7-1.6,0.9-2.4c0.2,1.6-0.1,3.4-0.4,5.1c-0.4,2.1-1.1,4.1-1.7,6.1c-0.4,1.3-0.3,2.7-0.1,4l-0.2-0.1
		c-1.3-2.5-4-4.4-4.8-7.1C186.8,247.3,186.3,244.8,186.8,242.4z M188.2,238.3c0-2.9,1.1-5.2,2.8-7.4c0,0,0.1-0.1,0.1-0.1
		c-1.9,2.8-0.2,6.4-0.4,9.6l-0.2,3.3c0,0,0,0.1,0.1,0.1c0.1-0.4,0.1-0.8,0.2-1.1c0.4-2.7,2.8-4.5,4.8-6.4c0.5-0.4,0.8-1,1-1.5
		c-0.2,1.3-0.5,2.7-1.1,3.9c-1.5,3.1-4.5,5.6-5,9.1C190.2,244.4,188.2,241.9,188.2,238.3z M193.1,228.6c0.9-1,2-1.8,3.2-2.2
		c-2.4,1.7-2.3,4.6-3,7.1c-0.3,0.9-0.7,1.8-0.9,2.7l0.1,0c0.4-1.1,1.1-2.1,2-2.9c1.7-1.6,4.3-2.6,5.1-4.9c0,3.3-2.8,5.7-5.4,7.7
		c-1.1,0.9-2.1,2-2.7,3.2c0.1-0.9,0.1-1.7,0.1-2.5C191.3,234,191.1,230.8,193.1,228.6L193.1,228.6z M202.9,223.1
		c-1.8,1.6-3,3.6-4.4,5.4c-1.1,1.5-2.7,2.5-4.1,3.7c0.7-1.5,0.9-3.3,1.8-4.7C197.8,225,200.5,224.1,202.9,223.1z"/>
	<path id="XMLID_27_" class="st1" d="M211.8,278c0.4,0.5,0.9,0.9,1.4,1.3c3.1-3.2,6.8-6.8,10.3-6.8c2.2,0,3.7,1.7,5.6,2.8
		c2.5,1.6,6,2.5,9,1.3c1.6-0.6,3.2-1.5,4.3-3c-2.3,1.6-5.9,1.8-8.5,0.7c-2.9-1.2-5.9-2.8-9.2-2.8C219.7,271.5,215.1,274.9,211.8,278
		z M248.1,267.8c-3.3,3.7-8.6,2.5-12.9,3.4c-0.6,0.1-1.2,0.3-1.8,0.2c0.5-0.3,1.2-0.4,1.8-0.6c3.4-1.3,3.9-4.9,5.7-7.4
		c-2.4,1.6-4.3,3.7-6.5,5.7c-1.5,1.4-3.4,2-5.4,2.4c0.5,0.2,1.1,0.1,1.6,0.3c3.6,0.9,7.5,2.3,11.3,1
		C244.3,272.1,246.9,270.2,248.1,267.8z M253.3,259.2c-2,4.6-7.1,5-10.5,7.8c-0.6,0.5-1.3,1-2,1.4l0,0c0.8-0.7,1.6-1.6,2.2-2.4
		c1.9-2.8,1.3-6.7,2.8-9.7c-1.4,1.6-2.6,3.3-3.4,5.2c-1.3,3-1.7,6.4-4.5,8.7c3.1-1,6.6-0.8,9.3-2.6
		C250.1,265.6,252.8,262.6,253.3,259.2L253.3,259.2z M255.5,249.9c-0.3,4-4.6,6.2-6.7,9.5c-0.4,0.7-0.9,1.4-1.5,2
		c0.1-0.4,0.5-0.8,0.6-1.2c0.7-1.4,1-3.1,0.8-4.8c-0.2-2.1-1.1-4-0.7-6.2c-1.8,3.8-1.2,8.6-2.2,12.7c-0.2,0.9-0.8,1.7-1.1,2.6
		c1.7-1.3,4-2.5,5.9-4c1.8-1.5,3.5-3.2,4.3-5.4C255.5,253.6,255.7,251.7,255.5,249.9z M255.4,242.4c-0.2-0.9-0.4-1.8-0.8-2.7
		c0.7,3.8-1.8,6.6-2.7,9.9c-0.3,1.2-0.4,2.6-0.9,3.7c0,0-0.1,0-0.1-0.1c1.3-3.5-0.6-6.8-2.4-9.5c-0.5-0.7-0.7-1.6-0.9-2.4
		c-0.2,1.6,0.1,3.4,0.4,5.1c0.4,2.1,1.1,4.1,1.7,6.1c0.4,1.3,0.3,2.7,0.1,4l0.2-0.1c1.3-2.5,4-4.4,4.8-7.1
		C255.4,247.3,255.8,244.8,255.4,242.4L255.4,242.4z M254,238.3c0-2.9-1.1-5.2-2.8-7.4c0,0-0.1-0.1-0.1-0.1c1.9,2.8,0.2,6.4,0.4,9.6
		l0.2,3.3c0,0,0,0.1-0.1,0.1c-0.1-0.4-0.1-0.8-0.2-1.1c-0.4-2.7-2.8-4.5-4.8-6.4c-0.5-0.4-0.8-1-1-1.5c0.2,1.3,0.5,2.7,1.1,3.9
		c1.5,3.1,4.5,5.6,5,9.1C251.9,244.4,254,241.9,254,238.3z M249.1,228.6c-0.9-1-2-1.8-3.2-2.2c2.4,1.7,2.3,4.6,3,7.1
		c0.3,0.9,0.7,1.8,0.9,2.7l-0.1,0c-0.4-1.1-1.1-2.1-2-2.9c-1.7-1.6-4.3-2.6-5.1-4.9c0,3.3,2.8,5.7,5.4,7.7c1.1,0.9,2.1,2,2.7,3.2
		c-0.1-0.9-0.1-1.7-0.1-2.5C250.9,234,251,230.8,249.1,228.6L249.1,228.6z M239.3,223.1c1.8,1.6,3,3.6,4.4,5.4
		c1.1,1.5,2.7,2.5,4.1,3.7c-0.7-1.5-0.9-3.3-1.8-4.7C244.3,225,241.7,224.1,239.3,223.1z"/>
	<path id="XMLID_28_" class="st1" d="M243,255.7l-0.5-0.3c-1.1,2.3-2.6,4.4-4.4,6.3l-3.1-3.1c1.5-1.6,2.7-3.3,3.6-5.3l-0.5-0.3
		c-0.9,1.9-2.1,3.6-3.5,5.1l-2.8-2.8c1.2-1.3,2.2-2.7,2.9-4.2l-0.5-0.3c-0.7,1.5-1.6,2.9-2.7,4.1l-3.1-3.1c0.9-0.9,1.5-2,2-3.1
		l-0.5-0.3c-0.4,1.1-1.1,2.1-1.9,3l-2.8-2.8c0.8-0.9,1.3-2,1.3-3.2h4c0,1.1-0.3,2.1-0.6,3.1l0.5,0.3c0.4-1.1,0.7-2.2,0.7-3.3h4.4
		c0,1.9-0.5,3.8-1.2,5.5l0.5,0.3c0.8-1.8,1.2-3.7,1.3-5.8h4c0,2.7-0.7,5.3-1.8,7.7l0.5,0.3c1.2-2.5,1.8-5.2,1.8-7.9h4.4
		c0,3.6-0.9,7-2.4,10.1L243,255.7c1.6-3.3,2.4-6.9,2.4-10.6c0-3.2-0.6-6.3-1.8-9.1l-0.5,0.2c1.1,2.7,1.7,5.6,1.7,8.6h-4.4
		c0-2.4-0.5-4.7-1.4-6.9l-0.5,0.2c0.8,2.1,1.3,4.3,1.3,6.6h-4c0-1.8-0.4-3.5-1-5.1l-0.5,0.2c0.6,1.5,0.9,3.2,1,4.8h-4.4
		c0-1.1-0.2-2.1-0.6-3.1l-0.5,0.2c0.3,0.9,0.5,1.9,0.5,2.9h-4c-0.1-1.2-0.5-2.3-1.3-3.2l2.8-2.8c0.9,0.9,1.5,2,2,3.2l0.5-0.2
		c-0.5-1.2-1.2-2.4-2.1-3.4l3.1-3.1c1.3,1.4,2.3,3,3,4.7l0.5-0.2c-0.7-1.8-1.8-3.5-3.1-4.9l2.8-2.8c1.7,1.8,3.1,3.9,4,6.1l0.5-0.2
		c-0.9-2.3-2.3-4.5-4.1-6.3l3.1-3.1c2.2,2.3,3.9,4.9,5,7.7l0.5-0.2c-1.2-3-3-5.7-5.4-8.1c-2.4-2.4-5.1-4.2-8.1-5.4L230,223
		c2.8,1.1,5.5,2.8,7.7,5l-3.1,3.1c-1.8-1.8-3.9-3.1-6.2-4.1l-0.2,0.5c2.2,0.9,4.3,2.2,6,3.9l-2.8,2.8c-1.4-1.3-2.9-2.3-4.7-3
		l-0.2,0.5c1.6,0.7,3.1,1.6,4.5,2.9l-3.1,3.1c-0.9-0.8-1.9-1.5-3-1.9l-0.2,0.5c1,0.4,1.9,1,2.8,1.8l-2.8,2.8c-0.9-0.8-2-1.3-3.2-1.3
		v-4c1.1,0,2.3,0.3,3.3,0.7l0.2-0.5c-1.1-0.5-2.3-0.7-3.5-0.8v-4.4c1.8,0,3.5,0.4,5.1,1.1l0.2-0.5c-1.7-0.7-3.5-1.1-5.3-1.1v-4
		c2.4,0,4.6,0.5,6.8,1.4l0.2-0.5c-2.2-0.9-4.6-1.4-7-1.4v-4.4c3,0,5.9,0.6,8.6,1.7l0.2-0.6c-2.9-1.2-5.9-1.8-9.1-1.8
		c-3.9,0-7.6,0.9-10.9,2.6l0.3,0.5c3.2-1.6,6.7-2.5,10.3-2.5v4.4c-3,0-5.8,0.8-8.3,2l0.3,0.5c2.5-1.2,5.2-1.9,8-1.9v4
		c-2.2,0-4.3,0.6-6.2,1.5l0.3,0.5c1.8-0.9,3.8-1.4,5.9-1.4v4.4c-1.4,0-2.7,0.4-3.9,0.9l0.3,0.5c1.1-0.5,2.3-0.8,3.6-0.9v4
		c-0.6,0-1.2,0.2-1.8,0.4l0.3,0.5c0.6-0.2,1.2-0.3,1.8-0.3c1.3,0,2.4,0.5,3.3,1.4c0.9,0.9,1.4,2.1,1.4,3.3c0,2.6-2.1,4.7-4.7,4.7
		c-1.3,0-2.4-0.5-3.3-1.4c-0.9-0.9-1.4-2.1-1.4-3.3c0-1.3,0.5-2.4,1.4-3.3c0.4-0.4,1-0.8,1.5-1l-0.3-0.5c-0.5,0.2-1,0.5-1.5,0.9
		l-2.8-2.8c0.7-0.7,1.5-1.2,2.4-1.7l-0.3-0.5c-1,0.4-1.8,1-2.6,1.8l-3.1-3.1c1.1-1,2.3-1.9,3.6-2.5l-0.3-0.5
		c-1.4,0.7-2.7,1.6-3.8,2.6l-2.8-2.8c1.4-1.4,3-2.5,4.8-3.4l-0.3-0.5c-1.8,0.9-3.5,2.1-4.9,3.5l-3.1-3.1c1.8-1.7,3.8-3.2,6-4.3
		l-0.3-0.5c-4.7,2.4-8.6,6.3-11,11l0.5,0.3c1.1-2.2,2.5-4.3,4.3-6.1l3.1,3.1c-1.4,1.5-2.7,3.2-3.6,5.1l0.5,0.3c0.9-1.8,2-3.5,3.5-5
		l2.8,2.8c-1.1,1.2-2.1,2.6-2.8,4.1l0.5,0.3c0.7-1.4,1.6-2.8,2.7-3.9l3.1,3.1c-0.8,0.8-1.4,1.8-1.9,2.9l0.5,0.3c0.4-1,1-2,1.8-2.8
		l2.8,2.8c-0.8,0.9-1.3,2-1.3,3.2h-4c0-1.1,0.3-2.2,0.7-3.3l-0.5-0.3c-0.5,1.1-0.7,2.3-0.8,3.5h-4.4c0-2,0.5-3.9,1.3-5.6l-0.5-0.3
		c-0.8,1.8-1.3,3.8-1.4,5.9h-4c0-2.7,0.7-5.4,1.8-7.8l-0.5-0.3c-1.2,2.5-1.9,5.2-1.9,8.1h-4.4c0-3.6,0.9-7.1,2.4-10.2l-0.5-0.3
		c-1.6,3.2-2.5,6.9-2.5,10.8c0,2.4,0.3,4.7,1,6.9l0.6-0.1c-0.6-2.1-0.9-4.2-1-6.4h4.4c0,1.8,0.3,3.6,0.8,5.4l0.6-0.1
		c-0.5-1.7-0.8-3.4-0.8-5.2h4c0,1.5,0.3,2.9,0.7,4.2l0.6-0.1c-0.4-1.3-0.7-2.7-0.7-4.1h4.4c0,1,0.2,2.1,0.6,3l0.6-0.1
		c-0.3-0.9-0.5-1.9-0.6-2.9h4c0.1,1.2,0.5,2.3,1.3,3.2l-2.8,2.8c-0.9-0.9-1.5-2-2-3.2l-0.6,0.1c0.5,1.3,1.2,2.4,2.1,3.4l-3.1,3.1
		c-1.5-1.6-2.6-3.4-3.3-5.5l-0.6,0.1c0.7,2.1,1.8,4.1,3.4,5.7l-2.8,2.8c-2.1-2.2-3.6-4.8-4.5-7.6l-0.6,0.1c0.9,2.9,2.5,5.6,4.6,7.9
		l-3.1,3.1c-2.8-2.8-4.7-6.2-5.8-9.9l-0.6,0.1c1.1,3.9,3.2,7.4,6.2,10.4c2,2,4.3,3.6,6.7,4.8l0.3-0.5c-2.3-1.1-4.5-2.6-6.4-4.5
		l3.1-3.1c1.6,1.6,3.5,2.8,5.4,3.7l0.3-0.5c-1.9-0.9-3.7-2.1-5.3-3.6l2.8-2.8c1.3,1.3,2.8,2.3,4.5,3l0.3-0.5
		c-1.6-0.7-3.1-1.6-4.3-2.9l3.1-3.1c1,0.9,2.2,1.7,3.4,2.1l0.3-0.5c-1.2-0.4-2.3-1.1-3.3-2l2.8-2.8c0.9,0.8,2,1.3,3.2,1.3v4
		c-0.9,0-1.9-0.2-2.7-0.5l-0.3,0.5c1,0.3,2,0.5,3,0.6v4.4c-1.8,0-3.6-0.4-5.2-1.1l-0.3,0.5c1.7,0.7,3.6,1.1,5.5,1.2v4
		c-2.6,0-5.1-0.6-7.5-1.7l-0.3,0.5c2.4,1.1,5,1.7,7.8,1.7v4.4c-3.5,0-6.9-0.8-9.9-2.3l-0.3,0.5c3.2,1.6,6.8,2.4,10.5,2.4
		c3.9,0,7.6-0.9,11-2.6l-0.3-0.5c-3.1,1.6-6.7,2.5-10.4,2.6v-4.4c3,0,5.8-0.8,8.4-2.1l-0.3-0.5c-2.5,1.2-5.2,2-8.1,2v-4
		c2.2,0,4.4-0.6,6.3-1.5l-0.3-0.5c-1.8,0.9-3.9,1.4-6,1.5V255c1.4,0,2.8-0.4,4-1l-0.3-0.5c-1.1,0.6-2.4,0.9-3.8,0.9v-4
		c1.2-0.1,2.3-0.5,3.2-1.3l2.8,2.8c-0.7,0.6-1.4,1.2-2.3,1.6l0.3,0.5c0.9-0.4,1.7-1,2.4-1.7l3.1,3.1c-1,1-2.2,1.8-3.5,2.5l0.3,0.5
		c1.3-0.7,2.6-1.5,3.7-2.6l2.8,2.8c-1.4,1.3-2.9,2.4-4.7,3.3l0.3,0.5c1.7-0.9,3.4-2,4.8-3.4l3.1,3.1c-1.7,1.7-3.7,3.1-5.9,4.2
		l0.3,0.5c2.3-1.2,4.4-2.7,6.3-4.5C240.3,260.4,241.9,258.2,243,255.7L243,255.7z"/>
	
		<rect id="XMLID_29_" x="222.3" y="239.5" transform="matrix(0.9992 -3.937162e-002 3.937162e-002 0.9992 -9.2595 8.9421)" class="st1" width="0.1" height="0.2"/>
	<rect id="XMLID_30_" x="222.1" y="239.2" class="st1" width="0.2" height="0.1"/>
	
		<rect id="XMLID_31_" x="221.8" y="239" transform="matrix(-0.9889 -0.1483 0.1483 -0.9889 405.7857 508.5026)" class="st1" width="0.2" height="0.1"/>
	
		<rect id="XMLID_32_" x="221.4" y="239" transform="matrix(0.9897 0.143 -0.143 0.9897 36.448 -29.2141)" class="st1" width="0.2" height="0.1"/>
	<rect id="XMLID_33_" x="220.2" y="238.9" class="st1" width="0.2" height="0.1"/>
	
		<rect id="XMLID_34_" x="219.8" y="239.1" transform="matrix(-0.9898 -0.1426 0.1426 -0.9898 403.3801 507.2427)" class="st1" width="0.2" height="0.1"/>
	
		<rect id="XMLID_35_" x="219.6" y="239.3" transform="matrix(0.9692 0.2464 -0.2464 0.9692 65.7383 -46.7467)" class="st1" width="0.2" height="0.1"/>
	
		<rect id="XMLID_36_" x="219.4" y="239.5" transform="matrix(0.1608 0.987 -0.987 0.1608 420.6446 -15.5904)" class="st1" width="0.2" height="0.1"/>
	<polygon id="XMLID_37_" class="st1" points="200,254.8 200,254.7 199.9,254.7 199.9,255 200.1,255 200.1,255.3 200.3,255.3 
		200.2,254.9 	"/>
	<polygon id="XMLID_38_" class="st1" points="202,256.9 201.9,257.1 201.6,256.8 201.4,256.5 201.3,256.3 201.2,255.9 201.5,256 
		201.6,256.4 201.8,256.5 	"/>
	<polygon id="XMLID_39_" class="st1" points="207,263.7 207,263.5 206.8,263.2 207.1,263.3 207.4,263.5 207.5,263.9 207.3,264 
		207.2,263.8 	"/>
	<path id="XMLID_40_" class="st1" d="M220.3,241.1H220l0-0.5l0.1-0.1v-0.3h-0.9l0-0.3l0.1-0.1l-0.2-0.1l-0.1,0.2l0,0.2l-0.2,0.1v0.1
		h-0.2v0.3l-0.7,0.6l-1.4,0c-0.1,0.2-0.3,0-0.3,0c0-0.1-0.4,0-0.4,0c0,0.3-0.5-0.1-0.5-0.1l-0.9-0.6c-0.5-0.4-1.2,0.1-1.3,0.2
		c0,0.3-0.6,0.1-0.6,0.1s-0.5-0.1-0.6,0.1c-0.1,0.2-0.4,0.1-0.4,0.1l0,0.1l-0.2,0l0,0.1l-0.3,0.1l0.7,0c0.2,0-0.1,0.4-0.2,0.4
		l-0.3,0l-0.1,0.1h-0.3l-0.1,0.2l-0.5,0c0,0-0.3,0.2-0.2,0.3c0,0.1,0,0.3-0.1,0.3s-0.2,0.2-0.2,0.3c0,0.1-0.1,0.3-0.1,0.3l0,0.2
		l-0.1,0v0.7l-0.3,0.2v0.3l-0.4,0.5l0,0.4l-0.4,0.4l0,0.4l-0.2,0.1l0,0.2l-0.1,0.5l0.2,0c0.1-0.1,0.1,0.3,0,0.4
		c-0.1,0.1-0.4,0.1-0.2,0.2c0.1,0.1-0.4,0.1-0.4-0.1c0-0.1-0.3-0.3-0.4-0.2c-0.1,0-0.2-0.2-0.2-0.2c-0.3-0.3-1.1,0-1.1,0l-0.1,0.4
		c-0.3,0.1-0.4,0.5-0.4,0.5c-0.2,0.1-0.4,0.3-0.3,0.4c0.1,0.1-0.1,0.1-0.1,0.1v0.5l-0.1,0.2l0,0.6c0.1,0,0.1,0.3,0.1,0.3
		c-0.2,0-0.2,0.3-0.2,0.3l-0.5,0.2l-0.1,0.1l-0.6,0l-0.2,0.2l-0.2-0.2h-1.2l0-0.1l-0.2-0.1l0-0.3l-0.4,0l-0.1,0.1l-0.4,0
		c0,0.2-0.4,0.6-0.4,0.5c0-0.1-0.3-0.4-0.2-0.4c0.1-0.1,0.4-0.1,0.4-0.1v-0.2l-0.9,0l-0.1,0.1l-0.4,0v0.4l-0.2,0.1
		c-0.1,0.1,0,0.3,0,0.3c0.2,0.2,0,0.4,0,0.4c-0.1,0.1,0.1,0.4,0.1,0.4c0.2,0-0.1,0.2-0.1,0.2c0,0.2,0.2,0.3,0.2,0.3
		c-0.1,0.2,0.1,0.4,0.1,0.4l0,0.4l0.2,0.1v0.3l0.1,0.2h0.4l0-0.6c-0.3-0.4,0.3-0.5,0.3-0.3c0,0.1,0.3,0.2,0.3,0.2
		c0,0.4,0.5,0.6,0.6,0.2c0.1-0.4,0.2-0.1,0.3,0c0.1,0.2,0.5,0.6,0.5,0.6h0.4l0,0.3c0.4,0,0.5,0,0.7,0.6c0.2,0.6,0.6,0.7,0.6,0.7
		l0.3,0c0-0.3,0.3,0.1,0.3,0.2c0,0.1,0.7,0.7,0.7,0.7l0.7,0.1l0.6,0.5l0.5,0h0.2c0.1-0.4,0.7,0,0.8,0.2c0,0.1,0.4,0.4,0.5,0.3
		c0-0.1,0.3,0,0.4,0.3c0,0.4,0.2,0.3,0.2,0.3l1.4,0l0.5-0.4l1.3,0c0.6,0,0.2-0.9,0.1-0.9c-0.2-0.2,0.1-0.9,0.1-0.9l-1.8-1.7
		c-0.4,0,0-0.6,0-0.6c0.3-0.2-0.1-0.5-0.1-0.5c0-0.3-0.2-0.6-0.2-0.6c-0.4-0.3-0.3-0.9-0.3-0.9v-0.4c-0.4-0.3,0.1-0.4,0.1-0.4
		c0.2-0.3-0.1-0.5-0.1-0.5l0-0.3l-0.4-0.1l0-1.2l-0.9-1.3c-0.2-0.1,0-0.3,0-0.3c0.2-0.1,0-0.4,0-0.4l0-0.5l0.5-0.1l0.1-0.2h0.2
		l0-0.6c0.1-0.3,0.4-0.1,0.4-0.1l0.3,0l0.2-0.4l0-0.3l-0.3,0c-0.3-0.2-0.1-0.8-0.1-0.8c0.5-0.7,1-0.3,1-0.3l0.3,0c0.5,0.3,0,1,0,1
		c-0.1,0.1,0,0.6,0,0.6l0.1,0.8l-0.3,0.3c-0.3,0.1-0.3,0.5,0,0.6c0.2,0,0.1,0.5-0.2,0.2c-0.4,0,0.2,0.4,0,0.3
		c0.4,0.2,0.3-0.2,0.3-0.2l0.6-0.5c0.2-0.2,0.6,0.4,0.6,0.4c0,0.1,1,0,1,0c0.3,0.2,0.4,0.6,0.4,0.6c0.3-0.3,0.8,0,0.4,0.2
		c0.4,0.2,0.4,0.5,0.4,0.5c0.3-0.1,0.3,0.1,0.3,0.2c0,0.1,0.1-0.4,0.1-0.4c-0.4-0.3,0.5-0.4,0.2,0.1l-0.1,0.2l0.2,0.2l0,0.6
		c0.5-0.1,0.4-0.7,0.4-0.7l0.2,0c0-0.2,0.2-0.1,0.2-0.1c-0.2-0.8,0.4-1,0.4-1c0.3-0.1,0.3-0.7,0.3-0.7c-0.2-0.1-0.1-0.4,0.1-0.1
		c0.2,0.3-0.1-0.6-0.1-0.6l-0.2-0.2l-0.3,0l0-0.3H216l-0.1,0.3l-0.2,0l0-0.1l-0.1,0.3h-0.4l0-0.3l0.3-0.1l0.1-0.1l0.1-0.4h0.3
		l0.4-0.1c0-0.4,0.2-0.3,0.2-0.3l0.1,0.1l0.2,0.2l0,0.1l-0.1,0.1l0,0.2l0.1,0.3h0.2c0.1-0.4,0.6-0.4,0.7-0.1l0.1-0.3
		c-0.3-0.2,0-0.4,0.1-0.3c0.1,0.1,0.3-0.3,0.3-0.3s0.2,0.2,0-0.1c-0.2-0.3,0.1-0.4,0.1-0.4c0-0.3,0.3-0.2,0.3-0.2l0-0.4l-0.3,0
		c-0.1,0.3-0.4,0.1-0.2,0c0.1-0.1,0.3-0.2,0.3-0.2v-0.2l0.1,0l0-0.2h0.4l0.3-0.1l0.1-0.1l0.3,0l0.5-0.4l0-0.2c-0.3,0,0-0.2,0-0.2
		L220.3,241.1L220.3,241.1z"/>
	<path id="XMLID_41_" class="st1" d="M210.4,246l-0.4,0l0,0.2h0.1c0.2,0.3,0,1.2,0,1.2s-0.3,0-0.3-0.1c0-0.1-0.2,0.3-0.1,0.4
		c0.1,0.1,0.4,0,0.5,0.3c0,0.3,0.2-0.2,0.2-0.2V246L210.4,246z"/>
	<polygon id="XMLID_42_" class="st1" points="210.6,248.6 210.4,248.5 210.4,248.1 210.6,248.1 210.6,247.9 210.2,248.2 210,248 
		210,248.6 210.4,249.2 210.5,248.8 	"/>
	<polygon id="XMLID_43_" class="st1" points="210.6,249.7 210.6,249.5 210.4,249.5 210.4,249.7 	"/>
	<polygon id="XMLID_44_" class="st1" points="210.4,250.9 210.4,250.7 210.2,250.8 210.2,250.9 	"/>
	<circle id="XMLID_45_" class="st1" cx="210.7" cy="250" r="0.1"/>
	<circle id="XMLID_46_" class="st1" cx="210.8" cy="250.6" r="0.1"/>
	<circle id="XMLID_47_" class="st1" cx="210.8" cy="247.7" r="0.1"/>
	<polygon id="XMLID_48_" class="st1" points="218.8,244.7 218.6,244.8 218.1,245.2 218.1,245.4 218,245.5 217.8,245.9 217.3,245.9 
		217.2,246.4 217.3,246.8 217.7,246.9 217.8,246.7 217.9,246.6 218,246.4 218.1,246.2 218.2,246 218.2,245.8 218.5,245.7 
		218.8,245.6 218.9,245.5 219,245.2 219,245 219.1,244.8 219.4,244.7 219.4,244.2 219.2,244.2 219.2,244 218.9,244 218.9,244.1 
		218.8,244.1 218.7,244.3 218.9,244.3 218.9,244.5 218.8,244.6 	"/>
	<path id="XMLID_49_" class="st1" d="M219.9,245.7v-0.3l0-0.3l-0.4-0.2l-0.3,0.2l0,0.3v0.2l-0.2,0.1l0,0.7l-0.2,0.1l0,0.2l-0.3,0.1
		l-0.3,0.1l0,0.3l-0.2,0.1l-0.1,0.3l-0.1,0.7c0,0,0.2,0.4,0.3,0.2c0.1-0.2,0.3-0.2,0.3-0.2l0.1-0.2l0.7,0c0-0.3,0.4-0.2,0.4,0
		c0,0.1,0.2,0,0.2,0l0.2-0.3h0.3l0-0.3l0.1-0.1v-0.4c0.4-0.1,0.3-0.5,0.3-0.5l0.1-0.1l0-0.2c-0.2-0.1-0.1-0.3,0-0.2
		c0.1,0-0.2-0.2-0.2-0.2c-0.1,0.1-0.3-0.1-0.3-0.1H219.9L219.9,245.7z"/>
	<path id="XMLID_50_" class="st1" d="M220.3,248.7c0,0.3-0.4,0.4-0.4,0.4l-0.3-0.1l-0.1-0.1l0-0.3l0.2,0l0,0.1L220.3,248.7z"/>
	<path id="XMLID_51_" class="st1" d="M221.6,247.1c0.1,0.2,0-0.3,0.1-0.3c0.1,0,0-0.3,0-0.3l-0.4,0.3
		C221.6,246.8,221.6,247,221.6,247.1L221.6,247.1z"/>
	<path id="XMLID_52_" class="st1" d="M222.9,245.8c0.1,0.2,0.1,0.5,0.4,0.8c0.1,0.1-0.1,0.2-0.2,0.2c-0.1-0.1-0.5-0.6-0.5-0.6v-0.3
		C222.8,245.7,222.9,245.8,222.9,245.8L222.9,245.8z"/>
	<polygon id="XMLID_53_" class="st1" points="223.1,253.3 222.9,253.4 223,253.5 223.1,253.6 223.2,253.4 	"/>
	
		<rect id="XMLID_54_" x="225.8" y="252.5" transform="matrix(-0.8451 0.5347 -0.5347 -0.8451 551.8699 345.1843)" class="st1" width="0.2" height="0.1"/>
	<path id="XMLID_55_" class="st1" d="M233,257.9l0.2,0.1l0,0.4c0.3,0.3,1.3,0.1,1.3,0c0-0.1,0-0.9,0-0.9l-0.1-0.1l0-0.6
		c0.1-0.3-0.5-0.8-0.5-0.7c0,0.1-0.4,0-0.4,0.1c0,0.1-0.2,0.6-0.1,0.8c0.1,0.2-0.1,0.2-0.1,0.3C233.2,257.4,232.9,257.7,233,257.9
		L233,257.9z"/>
	<path id="XMLID_56_" class="st1" d="M232.4,256.9c0,0.2-0.2,0.3-0.3,0.2c-0.1-0.1,0.1,0.1,0.2,0.2c0,0.1,0.2,0.1,0.2,0
		c0-0.1,0-0.3,0.1-0.4C232.7,256.8,232.5,256.8,232.4,256.9L232.4,256.9z"/>
	<rect id="XMLID_57_" x="231.3" y="252.3" class="st1" width="0.2" height="0.5"/>
	<path id="XMLID_58_" class="st1" d="M233.8,247.5c-0.1-0.1,0.5-0.4,0.6-0.1c0.1,0.3,0,0.2-0.1,0.2
		C234.2,247.6,234,247.7,233.8,247.5L233.8,247.5z"/>
	
		<rect id="XMLID_59_" x="234.4" y="244.1" transform="matrix(0.1709 -0.9853 0.9853 0.1709 -46.243 433.5478)" class="st1" width="0.1" height="0.3"/>
	<polygon id="XMLID_60_" class="st1" points="233.8,244.4 233.7,244.4 233.5,244.5 233.3,244.4 233.3,244.5 233.5,244.7 
		233.5,244.7 233.5,244.7 233.7,244.6 233.7,244.6 233.8,244.6 233.8,244.4 	"/>
	<path id="XMLID_61_" class="st1" d="M234.6,238.5h-0.4c0,0,0.1,0-0.2-0.3c-0.3-0.3-0.6,0.1-0.6,0.1l-0.4,0v0.4l-0.2,0.1l0,0.2
		l0.3,0c0,0,0,0.3,0.1,0.2c0.1-0.1,0.7,0,0.6,0.3c0,0.1,0.6,0.4,0.5,0.8c0.3,0.1,0.2,0.4,0.2,0.4l0.4,0l0.1-0.2l0.1,0v-0.1l-0.3-0.1
		l0-0.8l-0.2-0.1l0-0.2l-0.2-0.1l0.1-0.3L234.6,238.5L234.6,238.5z"/>
	<path id="XMLID_62_" class="st1" d="M235.7,241.1l-0.2,0l-0.4,0.1l-0.2,0.5c0,0,0.1,0.1,0.2,0.2c0.1,0.2,0.1,1.2-0.1,1.4
		c-0.3,0.2,0,0.1,0,0.1l0,0.5c0.1,0.2,0.2,0.1,0.3,0c0.1-0.1,0.1-0.1,0.2-0.3c0.1-0.1,0.2-0.3,0.3-0.5c0-0.2,0.1-0.4,0.1-0.5
		c-0.1-0.1,0.1-0.4,0.1-0.4s0.1-0.2,0-0.4c-0.1-0.2,0-0.4,0.1-0.5L235.7,241.1L235.7,241.1z"/>
	
		<rect id="XMLID_63_" x="236" y="241.9" transform="matrix(-0.1251 0.9921 -0.9921 -0.1251 505.6921 38.0517)" class="st1" width="0.2" height="0.1"/>
	
		<rect id="XMLID_64_" x="235.9" y="242.6" transform="matrix(0.8916 0.4529 -0.4529 0.8916 135.4815 -80.5453)" class="st1" width="0.1" height="0.2"/>
	<path id="XMLID_65_" class="st1" d="M235.8,240.8l-0.1-0.2c0,0,0-0.2,0-0.3c0-0.1-0.1-0.2-0.2-0.2c-0.1,0,0-0.2-0.1-0.3
		c0-0.1-0.2-0.2-0.2-0.2s0-0.4,0-0.4c0-0.1-0.2-0.2-0.1-0.2c0.1-0.1,0.1-0.2,0.2-0.2c0.1,0-0.1-0.4,0-0.3c0.1,0.1,0.1,0.2,0.2,0.3
		c0,0.1,0,0.4,0.1,0.5c0.1,0.1,0,0.3,0.2,0.3c0.2,0,0.1,0.5,0.1,0.5s0,0.3,0.1,0.4c0.1,0,0,0.6,0,0.6L235.8,240.8L235.8,240.8z"/>
	<path id="XMLID_66_" class="st1" d="M234.2,236.7c0.1,0.1,0.2,0.2,0.2,0.3c0,0.1,0,0.2,0.1,0.2c0.1,0,0.2,0,0.3,0.1
		c0,0.1,0,0.3,0,0.4c0,0.1,0,0.2,0.1,0.2c0.1,0,0.1,0,0.1,0.1c0,0.1,0.1-0.3,0.1-0.3c-0.1-0.1-0.2-0.3-0.2-0.3s-0.1-0.3-0.1-0.4
		c0,0-0.2-0.1-0.2-0.1c-0.1,0-0.2-0.2-0.2-0.2L234.2,236.7L234.2,236.7z"/>
	<path id="XMLID_67_" class="st1" d="M234.4,236.5c-0.1-0.1-0.1-0.2-0.2-0.2c-0.1-0.1-0.2-0.1-0.3-0.1c-0.1,0-0.2-0.1-0.1-0.2
		c0-0.1-0.1-0.2-0.1-0.3c0-0.1,0.1-0.1,0.2,0c0.1,0.1,0.1,0.1,0.2,0.2c0.1,0.1,0.1,0.2,0.2,0.2c0.1,0,0.2,0.2,0.3,0.1
		s0.1,0.2,0.1,0.2L234.4,236.5L234.4,236.5z"/>
	<path id="XMLID_68_" class="st1" d="M231.5,239.3c0.1,0.1-0.7,0.1-0.7,0c0-0.1,0.1-0.4,0.3-0.4c0.2,0.1,0.2-0.4,0.2-0.4
		s-0.2,0,0-0.1c0.2-0.1,0-0.2-0.1-0.3c-0.1-0.1-0.1-0.2-0.1-0.2h0.3c0.1-0.1,0.2-0.6,0.2-0.6c0.3,0.1,0.4-0.1,0.4-0.1
		s0.1,0.1,0.1,0.3c0.1,0.1-0.2,0.2-0.1,0.2c0.1,0.1,0.2,0.3,0.1,0.4c0,0.1-0.3,0-0.3-0.1c0-0.1-0.1,0.1,0,0.2s-0.1,0.3-0.2,0.3
		c0,0-0.4,0.1-0.1,0.2c0.3,0.1,0.6,0.1,0.6,0.1s0.2,0,0.3,0.1c0.1,0.1,0,0.1-0.1,0.1c-0.1,0-0.7-0.1-0.7-0.1
		S231.5,239.3,231.5,239.3L231.5,239.3z"/>
	<path id="XMLID_69_" class="st1" d="M230,239.6c0.1,0,0.4-0.1,0.5,0c0,0.1-0.2,0.2-0.2,0.2l-0.3,0.1
		C229.9,239.7,229.8,239.6,230,239.6L230,239.6z"/>
	<path id="XMLID_70_" class="st1" d="M233.1,237.5c0.2-0.1,0.6-0.1,0.6-0.2c0-0.1,0.2-0.2,0.2-0.2l0.1,0.3l0.2,0.1l0,0.3
		c0,0,0.1,0-0.2,0c-0.3,0.1-0.1,0.2-0.1,0.2l-0.6,0l-0.1-0.2L233.1,237.5L233.1,237.5z"/>
	<path id="XMLID_71_" class="st1" d="M232.2,236.1c0.1,0,0,0.6,0.3,0.5c0.4-0.1,0,0.2,0.3,0.2c0.3,0,0.2-0.2,0.3-0.4
		c0.1-0.2,0-0.3-0.1-0.3c-0.2,0-0.2,0-0.2-0.2c0-0.2-0.2-0.2-0.2-0.2l-0.1-0.3l-0.3,0.2l-0.3,0.4C231.8,236.3,232,236.1,232.2,236.1
		L232.2,236.1z"/>
	
		<rect id="XMLID_72_" x="232.8" y="238.1" transform="matrix(-0.4424 0.8968 -0.8968 -0.4424 549.5737 134.6617)" class="st1" width="0.2" height="0.1"/>
	<rect id="XMLID_73_" x="232.6" y="238" class="st1" width="0.1" height="0.2"/>
	
		<rect id="XMLID_74_" x="232.5" y="234.7" transform="matrix(-0.1098 -0.994 0.994 -0.1098 24.8062 491.7794)" class="st1" width="0.2" height="0.1"/>
	<rect id="XMLID_75_" x="232.3" y="237" class="st1" width="0.1" height="0.1"/>
	
		<rect id="XMLID_76_" x="231.9" y="236.8" transform="matrix(9.672926e-002 0.9953 -0.9953 9.672926e-002 445.3433 -16.9251)" class="st1" width="0.1" height="0.2"/>
	
		<rect id="XMLID_77_" x="229.7" y="239.2" transform="matrix(0.9168 0.3994 -0.3994 0.9168 114.689 -71.8772)" class="st1" width="0.1" height="0.2"/>
	
		<rect id="XMLID_78_" x="229.1" y="238.7" transform="matrix(9.698684e-002 0.9953 -0.9953 9.698684e-002 444.6856 -12.4351)" class="st1" width="0.1" height="0.2"/>
	
		<rect id="XMLID_79_" x="224.3" y="238.9" transform="matrix(0.999 -4.567609e-002 4.567609e-002 0.999 -10.681 10.5058)" class="st1" width="0.5" height="0.1"/>
	
		<rect id="XMLID_80_" x="223.8" y="238.9" transform="matrix(0.2133 0.977 -0.977 0.2133 409.6519 -30.8088)" class="st1" width="0.2" height="0.1"/>
	
		<rect id="XMLID_81_" x="223.7" y="239.1" transform="matrix(0.3116 0.9502 -0.9502 0.3116 381.3298 -48.0367)" class="st1" width="0.1" height="0.1"/>
	<path id="XMLID_82_" class="st1" d="M225,238.8l0,0.2l0.3,0c0,0,0.1,0.1,0.1,0.2c0,0.1,0.2,0.1,0.3,0.1s0.4-0.2,0.4-0.2
		s0.1-0.3,0-0.3c-0.1,0-0.3,0.2-0.3,0c0-0.1-0.3-0.1-0.3-0.1L225,238.8L225,238.8z"/>
	<path id="XMLID_83_" class="st1" d="M226.3,238.6c0,0.1,0,0.2,0.1,0.2c0.1,0,0.4-0.1,0.4,0c0,0.1,0,0.2,0.2,0.3
		c0.2,0.1,0.3,0.1,0.5,0.1c0.1,0,0.5-0.1,0.5-0.1s0.3,0.1,0.4,0.1c0.3,0.3,0.4,0.3,0.5,0.2c0.1-0.1,0-0.4,0-0.5
		c0-0.1-0.4-0.6-0.5-0.5c-0.1,0.1-0.1,0-0.4,0.1c-0.2,0.1-0.7,0-0.7-0.1c0-0.1-0.4-0.1-0.4-0.2c0-0.1-0.2-0.2-0.2-0.1
		c0,0.1-0.2,0.2-0.2,0.2C226.4,238.4,226.3,238.6,226.3,238.6L226.3,238.6z"/>
	<path id="XMLID_84_" class="st1" d="M231.9,235.4l0.2-0.5c-0.2-0.1-0.2-0.3-0.2-0.3c0-0.2-0.4-0.5-0.5-0.4
		c-0.1,0.1-0.1-0.5-0.1-0.5s0.2-0.1,0.3-0.1c0.1,0.1-0.8-1.2-1-1.1c-0.2,0.1-0.6-0.1-0.6-0.3c0-0.2-0.9-1-0.9-1s-0.3-0.2-0.3,0
		c0,0.1-0.1,0.2,0,0.3c0.1,0.1,0.1-0.1,0.3,0c0.2,0.2,0.5,0.4,0.4,0.5c-0.1,0.1-0.3,0.2-0.3,0.2l0.2,0.2h0.3l0,0.4
		c0,0,0.3,0.1,0.4,0.3c0.1,0.2,0.1,0.3,0,0.4c-0.1,0.1-0.2,0.3-0.2,0.4c0,0.2,0.2,0.2,0.2,0.2l0.2,0l0.1,0.1v0.3
		c0.2-0.1,0.5,0.2,0.5,0.4c0,0.2,0,0.1,0.3,0.2c0.2,0.2,0.2,0.2,0.3,0.3C231.7,235.7,231.9,235.6,231.9,235.4L231.9,235.4z"/>
	<path id="XMLID_85_" class="st1" d="M227.9,232c0-0.1-0.1-0.4,0.1-0.4c0.1,0,0,0,0.2,0.1c0.2,0.1,0.2-0.1,0.2-0.1h0.3l0.3,0.3
		l0,0.2l-0.2,0c-0.1-0.2-0.4-0.1-0.3,0.1c0,0.2-0.1,0.5-0.2,0.5c-0.1,0-0.4,0-0.4-0.1C227.8,232.3,227.9,232,227.9,232L227.9,232z"
		/>
	<path id="XMLID_86_" class="st1" d="M227.7,231.3v-0.2c0,0,0-0.2-0.1-0.2c-0.1,0-0.3-0.1-0.3-0.2c0-0.1-0.4-0.2-0.4-0.2
		s-0.4-0.4-0.3-0.3c0.1,0,0.1-0.2,0.1-0.2s-0.3,0-0.4,0c-0.1,0,0-0.2,0-0.2s-0.3-0.1-0.3,0c0,0.1,0.1,0.1,0.1,0.2
		c0,0.1,0,0.4,0.2,0.4c0.2,0.1,0.3,0.1,0.3,0.2c0,0.1,0.3,0.1,0.3,0.1l0.2,0.1L227.7,231.3z"/>
	<polygon id="XMLID_87_" class="st1" points="225,228.8 224.9,228.6 224.7,228.5 224.7,228.7 	"/>
	<path id="XMLID_88_" class="st1" d="M224.9,227.7c-0.3-0.2,0.3,0.1,0.3,0.1c0.2,0,0.3,0.1,0.3,0.2c0,0.1,0.3,0,0.3,0l0-0.2
		l-0.2-0.2l-0.2-0.1c0,0-0.3,0-0.3-0.1C225.3,227.4,225,227.8,224.9,227.7L224.9,227.7z"/>
	<path id="XMLID_89_" class="st1" d="M229.5,227.9c-0.1,0.2-0.1,0.5-0.2,0.5c-0.1,0-0.1,0.3-0.1,0.3s0.3,0,0.4,0
		c0.1,0,0.1,0.3,0.1,0.3c0.4,0,0.5,0.5,0.5,0.6c0,0.1,0.1,0.1,0.1,0.1s0,0.4,0,0.5c0,0.1,0.3,0.2,0.4,0.3c0.1,0.1,0,0.6-0.1,0.7
		c-0.1,0,0.2,0.1,0.2,0.2c0,0.1,0.1,0,0.1,0.2c0,0.2,0.1,0.6,0.1,0.6l0.3,0c0-0.3,0.7-0.3,0.8-0.3c0.4,0.1,0.7,0.8,0.7,0.9
		c0,0.1-0.3,0.2-0.3,0.2l0,0.7c0.4,0.1,0.8,0.7,0.7,0.8c0,0.1,0.3,0.1,0.3,0.1c0-0.4,0.5-0.3,0.5-0.1c0,0.1,0.1,0.5,0.1,0.5l0.1,0.2
		l0.2,0.2l0.3,0l0.1,0.1l0.3,0.1c0,0,0.3,0.3,0.3,0.4c0,0.1,0.4,0,0.5,0.1c0.1,0,0.2,0.1,0.3,0.2c0,0.1,0.2,0.3,0.2,0.3
		s0.3,0.1,0.3,0.2c0,0.1,0.1,0.3,0.1,0.3l0.2,0.2l0,0.2l0.3,0l0.1,0.3l0.4,0l0.2-0.2c0.3-0.2,0.5-0.4,0.6-0.5c0-0.1,0.1-0.5,0.3-0.4
		c0.2,0.1,0.1-0.5,0.1-0.5s-0.3-0.2-0.3-0.4c0-0.1-0.3-0.4-0.3-0.5c0-0.1-0.3-0.3-0.3-0.4c0-0.1-0.2-0.4-0.2-0.4l-0.4-0.3l0-0.2
		l-0.3,0l-0.6-0.7l0-0.2l-0.2,0v-0.3l-0.2-0.1l-0.3,0l-0.5-0.6l0-0.3h-0.3l0-0.5c0.2-0.2,0.1-0.6,0.1-0.6s-0.3,0.2-0.5,0.1
		c-0.2-0.1,0.1-0.2,0.1-0.2v-0.2l-0.1-0.1c0,0-0.4,0.1-0.4,0c0-0.1-0.1-0.4-0.1-0.4l0-0.4l-0.2-0.1l0-0.2l-0.3,0v-0.3l-0.1,0
		l-0.1-0.1l0-0.3l-0.5,0l-0.2-0.2l-0.2-0.3l-0.6,0l-0.1-0.1l-0.2-0.1l-0.2-0.1l-0.1,0.1l-0.5,0l0,0.1
		C230.5,227.9,229.5,227.8,229.5,227.9L229.5,227.9z"/>
	<path id="XMLID_90_" class="st1" d="M232,227.2c0-0.2,0.5-0.4,0.6-0.2c0.1,0.1,0.5,0.2,0.5,0.9c0,0.3-0.4-0.3-0.4-0.3l-0.4-0.1
		C232.2,227.5,232.1,227.3,232,227.2L232,227.2z"/>
	
		<rect id="XMLID_91_" x="224.7" y="227.2" transform="matrix(0.9112 0.4119 -0.4119 0.9112 113.6135 -72.4192)" class="st1" width="0.1" height="0.2"/>
	<path id="XMLID_92_" class="st1" d="M223.6,225.1l-0.3-0.3v-0.3l-0.1-0.1L223,224l-0.3-0.1l-0.3,0.1l-0.3,0.2l-0.4,0.1l-0.2,0.2
		l0.8,0.1l0.1,0.3l0.6,0l0.4,0.4C223.7,225.4,223.8,225.2,223.6,225.1L223.6,225.1z"/>
	<path id="XMLID_93_" class="st1" d="M223.5,223.8c-0.1-0.2-0.4,0.3,0,0.4c0.3,0.1,0.6,0,0.6,0l0.1-0.1l1.2,0
		c0.1-0.1,0.1-0.2,0.1-0.2s0.3-0.1,0.4-0.1c0.1,0.1,0-0.3-0.1-0.3c-0.1,0-0.4,0-0.4,0h-0.4c0-0.2-0.4-0.1-0.4,0
		c0,0.1-0.2,0.1-0.2,0.1l-0.6,0.1C223.8,223.8,223.5,223.9,223.5,223.8L223.5,223.8z"/>
	<path id="XMLID_94_" class="st1" d="M221.1,228c0.4,0.1,0.5,0,0.5-0.1c0-0.1,0-0.1,0.2-0.1c0.1,0,0-0.3-0.2-0.3
		c-0.1,0-0.3,0-0.3-0.2c0-0.1-0.3-0.4-0.3-0.2c0,0.2-0.2,0.2-0.1,0.4C220.9,227.8,221,228,221.1,228L221.1,228z"/>
	<path id="XMLID_95_" class="st1" d="M218.2,228.3c0-0.1,0.5-0.1,0.6,0c0.1,0.1,0,0.2,0.2,0.2c0.2,0,0.1,0.1,0.1,0.2
		c0,0.1-0.3,0-0.3,0c0-0.1-0.4-0.1-0.4-0.1S218.3,228.5,218.2,228.3L218.2,228.3z"/>
	<polygon id="XMLID_96_" class="st1" points="226.6,223 226.4,223.1 226.3,223 226.2,223.1 226.4,223.3 226.4,223.3 226.5,223.3 
		226.7,223.1 	"/>
	<polygon id="XMLID_97_" class="st1" points="225.3,222.5 225.1,222.4 225,222.5 225.2,222.7 225.3,222.7 225.3,222.7 225.6,222.5 
		225.5,222.4 	"/>
	<polygon id="XMLID_98_" class="st1" points="224.5,227.7 224.4,227.7 224.2,227.6 224.2,227.8 224.4,227.8 224.5,228 224.7,228 
		224.5,227.7 	"/>
	<path id="XMLID_99_" class="st1" d="M216.3,234.6l0,0.3h0.4c0.1,0-0.1-0.2-0.1-0.2S216.3,234.7,216.3,234.6L216.3,234.6z"/>
	
		<rect id="XMLID_100_" x="216.8" y="234.5" transform="matrix(-0.6331 0.7741 -0.7741 -0.6331 535.8717 215.2572)" class="st1" width="0.1" height="0.2"/>
	
		<rect id="XMLID_101_" x="212.4" y="229.9" transform="matrix(-0.7024 0.7118 -0.7118 -0.7024 525.3586 240.2916)" class="st1" width="0.1" height="0.2"/>
	<polygon id="XMLID_102_" class="st1" points="219.5,262.1 219.2,262 219.2,262.1 219.3,262.2 219.3,262.2 219.4,262.3 219.5,262.2 
		219.6,262.1 	"/>
	<polygon id="XMLID_103_" class="st1" points="217.6,260.3 217.5,260.2 217.3,260.3 217.2,260.4 217.3,260.4 217.5,260.5 
		217.6,260.4 217.5,260.3 	"/>
	<path id="XMLID_104_" class="st1" d="M235.8,255.5c0-0.1-0.2-0.2-0.2-0.2l0,0.1v0l0,0l0,0.1l0,0l0.1,0.1
		C235.8,255.7,235.9,255.6,235.8,255.5L235.8,255.5z"/>
	<polygon id="XMLID_106_" class="st1" points="236.1,255.1 235.8,255.1 235.9,254.8 236.1,254.9 	"/>
	<path id="XMLID_107_" class="st1" d="M241.8,253.1c0.1-0.1,0.2-0.2,0.2,0.1c0,0.3-0.1,0.2-0.2,0.3
		C241.7,253.6,241.6,253.2,241.8,253.1z"/>
	<path id="XMLID_108_" class="st1" d="M243,252.1L243,252.1c0-0.1,0-0.1,0-0.2l-0.1,0.1c0,0,0,0.1,0,0.1c0,0,0,0.1,0.1,0.1
		c0,0,0.1,0,0.1,0L243,252.1L243,252.1L243,252.1z"/>
	<path id="XMLID_112_" class="st1" d="M242.7,252.2c0,0.2,0.1,0.3,0.1,0.3l0.1-0.1c0,0-0.1-0.1-0.1-0.3L242.7,252.2L242.7,252.2z"/>
	<path id="XMLID_113_" class="st1" d="M242.2,252.8l-0.1,0c0,0.1,0,0.3,0.1,0.3l0-0.1l0,0C242.2,252.9,242.2,252.8,242.2,252.8
		L242.2,252.8z"/>
	<path id="XMLID_114_" class="st1" d="M241.5,249.8c0,0,0-0.1-0.1-0.1c-0.1,0-0.3,0-0.4,0.1l0.1,0.1c0.1-0.1,0.2-0.1,0.2-0.1l0,0
		L241.5,249.8z"/>
	<path id="XMLID_115_" class="st1" d="M234.7,241.8c-0.1,0.1-0.3,0.1-0.3,0.1l-0.1,0.3l-0.1,0.1c0,0,0,0.1,0,0.2
		c0,0.2-0.2,0.3-0.2,0.3l-0.1,0.1c0,0-0.6,0-0.7,0c-0.2-0.1-0.1-0.4,0.1-0.4c0.1,0,0-0.4,0-0.4l0.2,0c0,0,0-0.4,0.1-0.4
		c0.1,0,0-0.1-0.1-0.2c-0.1-0.1-0.2-0.3-0.3-0.3c-0.1,0-0.5,0-0.5,0l-0.1,0.1l-0.3,0c0,0,0,0.2,0,0.2c-0.1,0.2-0.7,0.5-0.5-0.1
		l0.1-0.1v-0.2l-0.4,0c0,0-0.2-0.1-0.2-0.2c0-0.1,0-0.2,0-0.2l-0.5-0.6l-0.6-0.1l0-0.1l-0.4,0c-0.4-0.2-0.8,0-0.8,0.3
		c0.1,0.4,0.2,0.5,0,0.5c-0.2,0-0.3-0.2-0.3-0.2s-0.2-0.1-0.2,0c0,0.1-0.1,0.3,0,0.4c0.1,0.1-0.1,0.2-0.2,0.2
		c-0.1-0.1-0.3-0.3-0.2-0.4c0-0.1-0.3-0.5,0-0.6c0.4-0.1,0-0.3,0.1-0.3l0.2-0.1h0.2l0.1-0.1l-0.3,0l-0.2,0l-0.4,0
		c-0.4,0.2-0.4,0.5-0.4,0.5c-0.2,0.4-0.7-0.1-0.5-0.3c0.2-0.2-0.5,0-0.7,0.1c-0.1,0.1-0.5,0-0.5,0c-0.1,0.2-0.4,0-0.3-0.2
		c0.1-0.1,0.1-0.2,0.1-0.2l-0.1,0l-0.1,0.3c-0.3,0-0.4,0.2-0.4,0.3c0.1,0.1-0.1,0-0.1,0.1c0,0.2,0,0.2,0.2,0.2
		c0.1,0.1-0.1,0.1,0,0.2c0.1,0.1,0.4,0,0.2,0.2c-0.2,0.2-0.5,0.1-0.5,0.1c0,0.2-0.5,0.2-0.5,0.1c0-0.1-0.4-0.5-0.4-0.5l-0.5,0
		c0-0.3,0.2-0.2,0.3-0.4c0.1-0.3,0.1-0.7,0.1-0.7s-0.4,0-0.4,0.1c0,0.1-0.3,0.2-0.3,0.2s-0.2,0.1-0.1,0.2c0.1,0.1-0.1,0.1-0.1,0.1
		s0,0.2,0,0.2c-0.2,0.2-0.7,0-0.8,0l-0.3-0.1l-0.3-0.2l-0.3,0.1l-0.1,0.1h-0.4l0,0.3l0.7,0.1l0,0.6l-0.3-0.1h-0.2l-0.1-0.1l-0.1,0
		v0.5l0.1,0.1l0.1,0.1l0.2,0l0,0.3l0.6,0l0.1,0.1l0.4,0l0.7,0.7l0,0.2l-0.1,0.1c0,0.2-0.3,0.1-0.3,0.1v0.1l0.2,0l0.2,0.1l0.2-0.4
		c0.3-0.2,0.4,0.1,0.4,0.2c0,0.1-0.1,0.1-0.1,0.1v0.3l0.1,0c0.2,0.3-0.1,0.5-0.1,0.5l-0.1,0.2c-0.1,0.2-0.3,0.2-0.3,0.2l-0.1,0.1
		l-0.3,0.1l0.6,0.1c0.1-0.2,0.2-0.2,0.3-0.1c0.1,0.1,0.1,0.3,0.1,0.3l0.1,0l0,0.3l0.1,0.1v0.8l0.2,0.2c0.3-0.1,0.3,0.1,0.1,0.2
		c-0.1,0.1,0,0.5,0,0.5l-0.1,0.1v0.2l-0.1,0.1v0.3c-0.2-0.1-0.5-0.1-0.6,0c-0.2-0.1-0.7-0.1-0.7,0c0.1,0.2-0.2,0.2-0.2,0.2l-0.2,0.2
		c0.1,0.2-0.1,0.3-0.1,0.3v0.5l-0.3,0.3l0,0.6c0,0.2,0.4,0.2,0.4,0.1c0.1-0.1,0.4,0.2,0.4,0.2h0.2l0-0.4l-0.1-0.1V249l0.2-0.3
		c0.3-0.1,0.2,0.6,0.2,0.7c0,0.3,0.1,0.2,0.3,0.2c0.2-0.1,0,0.3-0.1,0.2c-0.2,0-0.1,0.2-0.1,0.2l0.1,0.1l-0.2,0.2l-0.2,0.2l-0.2-0.1
		l-0.3,0l-0.1-0.2l-0.2,0l0,0.3l-0.1,0.1l-0.3,0.3c0.4,0,0,0.3-0.1,0.3c0.2,0.1,0,0.3-0.6,0.1v0.2l-0.2,0l0.2,0.2l0.2,0l-0.1,0.4
		c0,0.3-0.8,0.1-0.9,0l0,0.4l-0.1,0l0,0.3l0,0.4l0.3-0.1v0.2l0.7,0l1-1l0.6-0.1c0-0.3,0.3,0.1,0.3,0.1c0.2,0,0.3,0.1,0.3,0.1
		l0.3,0.1c0.3,0.1,0.1,0.1,0.1,0.2c0,0.1,0.1,0.1,0.1,0.1l0-0.3l0.1,0l-0.1-0.2l-0.3-0.1l-0.3-0.1c-0.2-0.3,0-0.2,0.2-0.2h0.3
		c0,0,0.4,0.5,0.4,0.6s0.2,0.1,0.2,0.1l0.2,0l0.1,0.2h0.2l0.1,0.1h0.4l0-0.2l-0.4-0.1l0-0.3l-0.3-0.1c-0.1-0.4,0.1-0.5,0.2-0.3
		l0.1,0l0-0.4l0.2-0.1l0-0.5l-0.1,0v-0.2l0.6,0c0-0.3,0-0.5,0-0.5h0.2l0,0.1l0.8,0.1l0.5-0.6c0,0,0.1-0.1,0-0.1
		c-0.1-0.1-0.2,0-0.3-0.1c-0.1-0.1,0-0.5,0-0.6c0-0.1,0.4-0.3,0.3,0c-0.1,0.2,0,0.3,0,0.3c0.3-0.3,0.6,0,0.6,0.1
		c0,0.1,0.2,0.1,0.3,0.1c0.1-0.1,0.3,0.2,0.2,0.4c0,0.1-0.5,0.1-0.5,0c0-0.1-0.1-0.1-0.1,0c0,0.1-0.3,0.1-0.4,0c0,0,0,0,0,0
		l-0.5,0.6l0,0c0.3,0.2,0.1,0.4,0,0.4c-0.1,0-0.3,0-0.3,0l0,0.1l-0.6,0l0,0.2c-0.3-0.1-0.4,0.3-0.4,0.5c0.1,0.2,0,0.3,0,0.3l0.3,0.1
		l0.3-0.1c0-0.2,0.3-0.3,0.5-0.4c0.2-0.1,0.5,0.3,0.4,0.5c-0.1,0.2-0.1,0.3-0.1,0.3l0,0.2l-0.2,0.1l-0.2,0.1l0,0.1h-0.7l-0.1,0.1
		l-0.3,0l-0.1,0.1l-0.2,0c0,0-0.4,0.2-0.2,0.4c0.1,0.2-0.6,0.2-0.8-0.1c0,0.2-0.3,0-0.3,0l-0.3-0.1l0-0.4c0-0.2-0.5-0.2-0.5-0.1
		c0,0.2-0.9,0.1-0.9,0.1l-0.3,0.1l-0.3,0.2l0,0.1l-0.4,0.1l-0.2,0.1l-0.1-0.1h-0.2l-0.2,0.3c-0.5,0-1,0.3-1,0.4
		c0,0.1-0.2,0.3-0.2,0.3l-0.2,0.1l-0.1,0.2l-0.3,0.1l0,0.5l-0.1,0.1v0.2l-0.2,0v0.1l-0.2,0l0.1,0.4l0.2,0.1c0.3,0,0.2,0.5,0.2,0.5
		l0.2,0l0.1,0.3l0.2,0.4c0.1,0.3,0.3,0.2,0.4,0.2c0.1,0,0.2,0.3,0.2,0.3l1,0c0,0,0,0.1,0.1,0.1c0.2,0,1.3,0.1,1.4,0
		c0-0.2,0.6-0.3,0.9-0.1c0.3,0.2,0.6,0.1,0.6,0.1l0.4,0.4l0.2,0.5l0.4,0.1l0.3,0.1l0.1,0.4l0.2,0l0.1,0.3c0.3,0.2-0.1,0.6-0.1,0.6
		v0.5l0.2,0.1l0,0.2l0.3,0.3l0.4,0l0.9,1l0.7,0.2l0.1,0.4l0.2,0l0.1-0.1l0.6,0l0.3-0.3l0.3,0l2.7-2.3l-0.2-0.1v-0.5
		c0.4-0.3,0.5-0.9,0-0.9c-0.3,0-0.2-0.4,0.1-0.4l0.2-0.1v-0.2l0.6-0.5v-0.4l-1.2-1c-0.5-0.2,0-1.4,0.4-1.4c0.4,0,0-1.8,0-1.8
		l-0.2-0.1l0-0.6h-0.3l-0.4,0.6l-0.1,0.4c0,0.5-1.6,0.4-1.6,0.3c-0.1-0.1-0.6-0.3-0.6-0.3s-0.4-0.3-0.5-0.2
		c-0.1,0.1-0.4-0.1-0.4-0.1c0,0.1-0.3-0.2-0.3-0.2l-0.5-0.2l0.4-0.1l-0.1-0.3l0.6,0.3c0.1,0.1,0.4,0.1,0.4,0.1l0.1,0.1
		c0,0,0.2,0,0.3,0.1c0.1,0.1,0.8,0,0.8,0l0.2,0.1l0.3,0.1l0.8,0l0-0.5l0.1-0.1l0-0.3l0.2-0.1v-0.2l0.1-0.1l0-0.5l0.1,0V251l-0.4-0.3
		c0,0.1-0.4,0.1-0.4,0.1s-0.1,0.2-0.2,0.2c-0.1,0,0.1,0.2,0,0.4c0,0.1-0.2,0.1-0.2,0.1l-0.4,0.1l-0.1,0.1h-0.4l0-0.3l0.4-0.1
		l0.2-0.1l0.1-0.3c0-0.2,0.3-0.2,0.3-0.2s0.6-0.5,0.6-0.7c0-0.2,0.2-0.8,0.6-0.8h0.6c0.2-0.1,0.2-0.4,0.2-0.4l0.3,0l0,0.2
		c0,0,0.4,0,0.5,0c0-0.1,0.1-0.2,0.3-0.2c0.1,0.1,0.5-0.2,0.5-0.2c0-0.2,0.6-0.1,0.6-0.1l0.1-0.2c0,0-0.4-0.6-0.5-0.6
		c-0.1,0-0.5-0.3-0.5-0.2c-0.4-0.1-0.4-0.6-0.4-0.6l-0.1-0.3c0-0.2-0.4-0.6-0.4-0.6c-0.4-0.3-0.1-0.6,0-0.6c0.1,0,0.3-0.4,0.3-0.4
		l0.1-0.3l0.4-0.1l0-0.3l-0.2,0c0,0,0.2-0.4,0.4-0.4s0.9,0,1-0.1c0.1,0,0.2-0.4,0.2-0.5c0-0.1,0.2-0.1,0.3-0.1
		c0.1,0,0.2-0.2,0.3-0.3C235,242.4,234.8,241.7,234.7,241.8L234.7,241.8z"/>
	<path id="XMLID_116_" class="st1" d="M221.1,250.8c0,0,0.1,0.1,0.1,0.1c0.1,0,0.1,0.1,0,0.1c-0.1,0-0.1,0.1-0.1,0.1
		c0,0,0,0.1-0.1,0.2c-0.1,0.1-0.1,0-0.2,0c-0.1,0-0.1,0-0.2,0c-0.1,0,0,0.1,0,0.1s-0.4,0-0.3-0.1c0.1-0.1,0.1-0.1,0.1-0.1
		c-0.1,0,0-0.1,0-0.1s0.2,0,0.1-0.1c-0.1-0.1,0-0.3,0.1-0.1l0.1-0.1c-0.1-0.1,0-0.1-0.1-0.1c-0.1,0,0-0.3,0-0.3l0-0.1
		c0-0.2,0.4-0.2,0.4,0c0,0.2,0,0.3,0,0.3l0.1,0c0,0,0,0.1-0.1,0.1C221,250.6,221.1,250.7,221.1,250.8L221.1,250.8L221.1,250.8z"/>
	<path id="XMLID_117_" class="st1" d="M219.9,251c0.1-0.1,0.2-0.6,0.3-0.4c0.1,0.1,0.2,0,0.2,0s0.1,0.1,0,0.2c0,0.1-0.1,0.3-0.2,0.3
		c-0.1,0-0.2,0.1-0.3,0.1C219.9,251.2,219.9,251,219.9,251L219.9,251z"/>
	<circle id="XMLID_118_" class="st0" cx="153.6" cy="250" r="18.6"/>
	<circle id="XMLID_119_" class="st0" cx="86.1" cy="184.1" r="18.6"/>
	<circle id="XMLID_120_" class="st0" cx="86.1" cy="250" r="18.6"/>
	<circle id="XMLID_121_" class="st2" cx="86.1" cy="315" r="18.6"/>
	<circle id="XMLID_122_" class="st2" cx="153.6" cy="315" r="18.6"/>
	<circle id="XMLID_123_" class="st2" cx="221.1" cy="315" r="18.6"/>
	<circle id="XMLID_124_" class="st0" cx="221.1" cy="184.1" r="18.6"/>
	<circle id="XMLID_125_" class="st0" cx="153.6" cy="184.1" r="18.6"/>
</g>
</svg>
